<?xml version="1.0" encoding="UTF-8"?>
<svg width="119.35mm" height="29.157mm" version="1.1" viewBox="0 0 119.35 29.157" xmlns="http://www.w3.org/2000/svg">
<g transform="translate(-65.013 -80.085)">
<g transform="translate(-56.555 -43.669)" fill="#fff" stroke-width="5.6547" aria-label="â—">
<path d="m150.76 138.33q0 6.0302-4.3073 10.304-4.2741 4.2741-10.304 4.2741-5.997 0-10.304-4.2741-4.2741-4.2741-4.2741-10.304 0-6.0633 4.2741-10.304 4.2741-4.2741 10.304-4.2741 6.0302 0 10.304 4.2741 4.3073 4.2741 4.3073 10.304zm-14.612 12.093q4.9699 0 8.5152-3.5452 3.5784-3.5784 3.5784-8.5483 0-5.0031-3.5452-8.5483-3.5452-3.5452-8.5483-3.5452z" fill="#fff"/>
</g>
<g fill="#fff" stroke-width=".26458" aria-label="llmrails">
<path d="m100.9 103.51v-16.753h3.5221v16.753z"/>
<path d="m107.69 103.51v-16.753h3.5221v16.753z"/>
<path d="m130.04 91.179q1.445 0 2.5513 0.58702 1.1289 0.56444 1.7611 1.7611 0.65475 1.174 0.65475 3.0254v6.954h-3.5221v-6.4121q0-1.4676-0.60961-2.1675-0.6096-0.69991-1.7159-0.69991-0.76764 0-1.3772 0.36124-0.6096 0.33867-0.94827 1.0386-0.33867 0.69991-0.33867 1.7836v6.096h-3.5221v-6.4121q0-1.4676-0.6096-2.1675-0.58702-0.69991-1.6933-0.69991-0.76765 0-1.3772 0.36124-0.6096 0.33867-0.94826 1.0386-0.33867 0.69991-0.33867 1.7836v6.096h-3.5221v-12.147h3.3641v3.3189l-0.63217-0.97084q0.63217-1.2418 1.7836-1.874 1.174-0.65476 2.6642-0.65476 1.6708 0 2.9125 0.85796 1.2644 0.83538 1.6708 2.5739l-1.2418-0.33867q0.6096-1.4224 1.9417-2.2578 1.3547-0.83538 3.0932-0.83538z"/>
<path d="m138.17 103.51v-12.147h3.3641v3.4318l-0.47413-0.99342q0.54187-1.2869 1.7385-1.9417 1.1966-0.67733 2.9125-0.67733v3.2512q-0.22578-0.02258-0.4064-0.02258-0.18063-0.02258-0.38383-0.02258-1.445 0-2.3481 0.83538-0.88053 0.8128-0.88053 2.5513v5.7348z"/>
<path d="m154.47 103.51v-2.3707l-0.22578-0.51929v-4.2446q0-1.1289-0.69991-1.7611-0.67733-0.63218-2.0997-0.63218-0.97085 0-1.9191 0.31609-0.92569 0.29351-1.5804 0.8128l-1.2644-2.461q0.99342-0.69991 2.3932-1.0837 1.3998-0.38382 2.8448-0.38382 2.7771 0 4.3124 1.3095 1.5353 1.3095 1.5353 4.0866v6.9314zm-3.7028 0.18062q-1.4224 0-2.4384-0.47413-1.016-0.49672-1.5579-1.3321-0.54187-0.83538-0.54187-1.874 0-1.0837 0.51929-1.8965 0.54187-0.8128 1.6933-1.2644 1.1515-0.47413 3.0028-0.47413h3.2286v2.0546h-2.8448q-1.2418 0-1.7159 0.4064-0.45156 0.4064-0.45156 1.016 0 0.67734 0.51929 1.0837 0.54187 0.38382 1.4676 0.38382 0.88053 0 1.5804-0.4064 0.69991-0.42898 1.016-1.2418l0.54187 1.6256q-0.38382 1.174-1.3998 1.7836t-2.619 0.6096z"/>
<path d="m160.95 103.51v-12.147h3.5221v12.147zm1.7611-13.84q-0.97085 0-1.5804-0.56444t-0.6096-1.3998q0-0.83538 0.6096-1.3998t1.5804-0.56444q0.97084 0 1.5804 0.54187 0.6096 0.51929 0.6096 1.3547 0 0.88053-0.6096 1.4676-0.58703 0.56444-1.5804 0.56444z"/>
<path d="m167.75 103.51v-16.753h3.5221v16.753z"/>
<path d="m178.63 103.69q-1.5579 0-3.0028-0.36125-1.4224-0.38382-2.2578-0.94826l1.174-2.5287q0.83538 0.51929 1.9643 0.85796 1.1515 0.31609 2.2578 0.31609 1.2192 0 1.7159-0.29351 0.51929-0.29351 0.51929-0.8128 0-0.42898-0.4064-0.63218-0.38382-0.22578-1.0386-0.33867-0.65475-0.11289-1.445-0.22578-0.76764-0.11289-1.5579-0.29351-0.79023-0.2032-1.445-0.58702-0.65476-0.38382-1.0612-1.0386-0.38382-0.65476-0.38382-1.6933 0-1.1515 0.65475-2.032 0.67734-0.88053 1.9417-1.3772 1.2644-0.51929 3.0254-0.51929 1.2418 0 2.5287 0.27093 1.2869 0.27093 2.1449 0.79022l-1.174 2.5061q-0.88053-0.51929-1.7836-0.69991-0.88053-0.2032-1.7159-0.2032-1.174 0-1.7159 0.31609-0.54187 0.31609-0.54187 0.8128 0 0.45156 0.38382 0.67733 0.4064 0.22578 1.0612 0.36124t1.4224 0.24836q0.79022 0.09031 1.5804 0.29351 0.79022 0.2032 1.4224 0.58702 0.65475 0.36124 1.0612 1.016 0.4064 0.63218 0.4064 1.6708 0 1.1289-0.67734 2.0094-0.67733 0.85796-1.9643 1.3547-1.2644 0.49671-3.0932 0.49671z"/>
</g>
</g>
</svg>